/* XPM */
static char * folder_yellow_xpm[] = {
"34 34 418 2",
"  	c None",
". 	c #43392B",
"+ 	c #999D71",
"@ 	c #6A6F2D",
"# 	c #F9F7F6",
"$ 	c #4A5001",
"% 	c #F8F8EE",
"& 	c #F5F6E5",
"* 	c #878A55",
"= 	c #F7F4F0",
"- 	c #F8F5F1",
"; 	c #F8F6F3",
"> 	c #F9F7F4",
", 	c #F9F8F5",
"' 	c #EBECC9",
") 	c #F0F0D6",
"! 	c #F6F7E8",
"~ 	c #717150",
"{ 	c #8F9167",
"] 	c #F6EFEB",
"^ 	c #F6F1EC",
"/ 	c #F7F2ED",
"( 	c #F7F3EF",
"_ 	c #F7F4EF",
": 	c #F7F5F0",
"< 	c #F8F4F2",
"[ 	c #E3E3B2",
"} 	c #E5E6B8",
"| 	c #A8A794",
"1 	c #BFBDB1",
"2 	c #E4E7D3",
"3 	c #A2AD7D",
"4 	c #9EA07C",
"5 	c #F3EEE6",
"6 	c #F5EFE8",
"7 	c #F5EFEA",
"8 	c #F6F0EB",
"9 	c #F7F2EE",
"0 	c #A3A185",
"a 	c #A6A48A",
"b 	c #E0DFC6",
"c 	c #E2E1C9",
"d 	c #E3E2CF",
"e 	c #D0D3B4",
"f 	c #99A26F",
"g 	c #7E8051",
"h 	c #F2EBE3",
"i 	c #F2EDE4",
"j 	c #F3EEE5",
"k 	c #F5EFE9",
"l 	c #B7B599",
"m 	c #9F9E7B",
"n 	c #D9D8B7",
"o 	c #DAD9BB",
"p 	c #DDDABF",
"q 	c #DFDDC3",
"r 	c #DFDEC6",
"s 	c #CDCFAE",
"t 	c #97A069",
"u 	c #7D7F50",
"v 	c #F0E9DE",
"w 	c #F1EADF",
"x 	c #F1EAE0",
"y 	c #F2EBE2",
"z 	c #F3ECE4",
"A 	c #A8A881",
"B 	c #D3D2AC",
"C 	c #D5D1B0",
"D 	c #D7D5B3",
"E 	c #D8D6B7",
"F 	c #DAD9BA",
"G 	c #DCD9BF",
"H 	c #D2D2B2",
"I 	c #B4B98B",
"J 	c #8C8F66",
"K 	c #EFE6DA",
"L 	c #EFE7DB",
"M 	c #F0E7DD",
"N 	c #F1EBE1",
"O 	c #DEDFA5",
"P 	c #C5C776",
"Q 	c #9C9B6E",
"R 	c #D1CFA7",
"S 	c #D2D0AB",
"T 	c #D5D2B0",
"U 	c #D6D3B3",
"V 	c #D7D5B6",
"W 	c #D9D8BA",
"X 	c #CCCDA9",
"Y 	c #B8BA97",
"Z 	c #A0A27F",
"` 	c #8A8D65",
" .	c #EEE4D7",
"..	c #EFE4D8",
"+.	c #EFE7DA",
"@.	c #EFE6DC",
"#.	c #D3D587",
"$.	c #C5C76E",
"%.	c #BEBF6E",
"&.	c #999869",
"*.	c #CFCCA3",
"=.	c #D0CEA7",
"-.	c #D1CFAB",
";.	c #D3D0AE",
">.	c #D6D4B3",
",.	c #D6D3B6",
"'.	c #E0E0C8",
").	c #ECEBDC",
"!.	c #E8E7D7",
"~.	c #9B9C7B",
"{.	c #8A8C65",
"].	c #EDE2D5",
"^.	c #EEE3D6",
"/.	c #EEE3D8",
"(.	c #EFE8DC",
"_.	c #D8D892",
":.	c #C7C862",
"<.	c #C8CA67",
"[.	c #C3C769",
"}.	c #BCBE6A",
"|.	c #989765",
"1.	c #CDCAA1",
"2.	c #CECBA4",
"3.	c #CFCDA7",
"4.	c #D0CDAB",
"5.	c #D2D0AE",
"6.	c #D5D2B3",
"7.	c #D7D5B7",
"8.	c #E0DECA",
"9.	c #ECEADE",
"0.	c #8A8A64",
"a.	c #EDE1D3",
"b.	c #EDE1D4",
"c.	c #EEE2D5",
"d.	c #EFE5D7",
"e.	c #CACD71",
"f.	c #C2C558",
"g.	c #C4C75E",
"h.	c #C1C565",
"i.	c #BABD65",
"j.	c #979663",
"k.	c #C9C69B",
"l.	c #CCC9A0",
"m.	c #CFCCA7",
"n.	c #D0CEAA",
"o.	c #D1CEAE",
"p.	c #D3D1B1",
"q.	c #D6D3B7",
"r.	c #E7E6D7",
"s.	c #999A7A",
"t.	c #ECE0D0",
"u.	c #ECE1D2",
"v.	c #505F09",
"w.	c #ABB55F",
"x.	c #AAB13D",
"y.	c #BEC14D",
"z.	c #C0C253",
"A.	c #C1C25F",
"B.	c #B8BA5F",
"C.	c #979660",
"D.	c #C7C597",
"E.	c #C8C49B",
"F.	c #CAC79F",
"G.	c #CDCAA3",
"H.	c #CFCCAA",
"I.	c #D1CFAE",
"J.	c #D2CFB1",
"K.	c #D5D2B6",
"L.	c #E0DFCA",
"M.	c #E7E4D8",
"N.	c #898964",
"O.	c #EADDCD",
"P.	c #EADFCF",
"Q.	c #ECE0D1",
"R.	c #6C7730",
"S.	c #82912F",
"T.	c #879628",
"U.	c #99A333",
"V.	c #979A3F",
"W.	c #A0A548",
"X.	c #96955C",
"Y.	c #C6C394",
"Z.	c #C7C398",
"`.	c #C8C59A",
" +	c #C9C69F",
".+	c #CCC8A3",
"++	c #CECBA7",
"@+	c #CFCCAB",
"#+	c #D0CDAD",
"$+	c #D2D0B1",
"%+	c #D3D0B5",
"&+	c #DFDDC9",
"*+	c #EAE9DD",
"=+	c #E7E5D8",
"-+	c #878F61",
";+	c #E9DCCB",
">+	c #E9DECC",
",+	c #474747",
"'+	c #FAFAFA",
")+	c #838C41",
"!+	c #68771D",
"~+	c #7A8A20",
"{+	c #959C35",
"]+	c #A3AA3F",
"^+	c #A1A743",
"/+	c #9EA245",
"(+	c #939257",
"_+	c #C2BF8F",
":+	c #C5C194",
"<+	c #C6C298",
"[+	c #C7C39A",
"}+	c #C9C69E",
"|+	c #CAC8A2",
"1+	c #CDC9A6",
"2+	c #CECAAB",
"3+	c #CFCCAD",
"4+	c #D1CFB1",
"5+	c #D3D1B5",
"6+	c #DFDCCA",
"7+	c #A1AE78",
"8+	c #6E763F",
"9+	c #E7D9C6",
"0+	c #5E5E5E",
"a+	c #F7F7F7",
"b+	c #F8F8F8",
"c+	c #F5F5F5",
"d+	c #7B8821",
"e+	c #889729",
"f+	c #939F31",
"g+	c #9EA73A",
"h+	c #9EA63E",
"i+	c #9BA041",
"j+	c #939353",
"k+	c #C0BC8C",
"l+	c #C1BE8F",
"m+	c #C3C093",
"n+	c #C5C097",
"o+	c #C8C59E",
"p+	c #CCC8A6",
"q+	c #CECAAA",
"r+	c #CFCAAE",
"s+	c #B4B888",
"t+	c #A6AE78",
"u+	c #444817",
"v+	c #F1F1F1",
"w+	c #F2F2F2",
"x+	c #F0F0F0",
"y+	c #76871D",
"z+	c #7E8F24",
"A+	c #87962A",
"B+	c #919E32",
"C+	c #99A33A",
"D+	c #989F3D",
"E+	c #91924E",
"F+	c #C0BE89",
"G+	c #BFBC8C",
"H+	c #C1BE8E",
"I+	c #C2BF93",
"J+	c #C5C197",
"K+	c #C6C19B",
"L+	c #C7C39F",
"M+	c #C9C7A1",
"N+	c #9D9C71",
"O+	c #7A8744",
"P+	c #474F16",
"Q+	c #EFEFEF",
"R+	c #EDEDED",
"S+	c #EAEAEA",
"T+	c #ECECEC",
"U+	c #75871E",
"V+	c #7D8F24",
"W+	c #86952B",
"X+	c #8E9A31",
"Y+	c #959E39",
"Z+	c #8E9249",
"`+	c #BCB784",
" @	c #BFBA8B",
".@	c #C0BD8E",
"+@	c #C2BF92",
"@@	c #899043",
"#@	c #828E3C",
"$@	c #404803",
"%@	c #E8E8E8",
"&@	c #E6E6E6",
"*@	c #E2E2E2",
"=@	c #E7E7E7",
"-@	c #EEEEEE",
";@	c #76881E",
">@	c #7C8E24",
",@	c #83922A",
"'@	c #8A9730",
")@	c #8D9244",
"!@	c #BAB680",
"~@	c #A1A650",
"{@	c #A8AD55",
"]@	c #819036",
"^@	c #576612",
"/@	c #424702",
"(@	c #464C02",
"_@	c #B2B2B2",
":@	c #D1D1D1",
"<@	c #E5E5E5",
"[@	c #E1E1E1",
"}@	c #DFDFDF",
"|@	c #DCDCDC",
"1@	c #E9E9E9",
"2@	c #E3E3E3",
"3@	c #7B8D24",
"4@	c #818F29",
"5@	c #848E39",
"6@	c #969F3F",
"7@	c #9EA545",
"8@	c #A4A94A",
"9@	c #96A040",
"0@	c #8E9D3D",
"a@	c #5E6B14",
"b@	c #8E9E3D",
"c@	c #909F40",
"d@	c #505050",
"e@	c #C0C0C0",
"f@	c #AFAFAF",
"g@	c #CDCDCD",
"h@	c #DEDEDE",
"i@	c #DADADA",
"j@	c #D7D7D7",
"k@	c #D5D5D5",
"l@	c #DDDDDD",
"m@	c #64711C",
"n@	c #74871F",
"o@	c #7A8A24",
"p@	c #82912A",
"q@	c #8D9A32",
"r@	c #9CA73E",
"s@	c #A2AC43",
"t@	c #80902D",
"u@	c #515E0E",
"v@	c #899735",
"w@	c #8C9C3A",
"x@	c #92A143",
"y@	c #4B4B4B",
"z@	c #BDBDBD",
"A@	c #ACACAC",
"B@	c #C7C7C7",
"C@	c #D8D8D8",
"D@	c #D6D6D6",
"E@	c #D3D3D3",
"F@	c #D0D0D0",
"G@	c #CECECE",
"H@	c #D9D9D9",
"I@	c #7F8741",
"J@	c #626F1D",
"K@	c #7D8F25",
"L@	c #87972C",
"M@	c #89982F",
"N@	c #85952F",
"O@	c #414F11",
"P@	c #839231",
"Q@	c #8A9837",
"R@	c #8B9A39",
"S@	c #7F9132",
"T@	c #73872A",
"U@	c #B7B7B7",
"V@	c #A7A7A7",
"W@	c #C1C1C1",
"X@	c #CFCFCF",
"Y@	c #CCCCCC",
"Z@	c #C8C8C8",
"`@	c #768820",
" #	c #768921",
".#	c #37410B",
"+#	c #677F24",
"@#	c #798C2C",
"##	c #879732",
"$#	c #7D8F2D",
"%#	c #718626",
"&#	c #B3B3B3",
"*#	c #A5A5A5",
"=#	c #BCBCBC",
"-#	c #CACACA",
";#	c #C5C5C5",
">#	c #717171",
",#	c #959595",
"'#	c #5A6602",
")#	c #647E20",
"!#	c #788A29",
"~#	c #798A27",
"{#	c #6E8222",
"]#	c #A0A0A0",
"^#	c #BEBEBE",
"/#	c #BABABA",
"(#	c #2F2F2F",
"_#	c #57731A",
":#	c #697F20",
"<#	c #728321",
"[#	c #6D801E",
"}#	c #AAAAAA",
"|#	c #9E9E9E",
"1#	c #BFBFBF",
"2#	c #B0B0B0",
"3#	c #607719",
"4#	c #6A7F1C",
"5#	c #999999",
"6#	c #587113",
"7#	c #607716",
"8#	c #667B17",
"9#	c #A1A1A1",
"0#	c #969696",
"a#	c #5A7112",
"b#	c #617713",
"c#	c #9D9D9D",
"d#	c #929292",
"e#	c #586F0E",
"f#	c #5D7311",
"g#	c #485003",
"h#	c #434343",
"i#	c #989898",
"j#	c #5B710E",
"k#	c #3D3D3B",
"                                                                    ",
"                                    . .                             ",
"                  + @           . . # # .                           ",
"                $ % & * @   . . = - ; > , .                         ",
"                @ ' ) ! & ~ { ] ^ / ( _ : < .                       ",
"              $ ' [ } | 1 2 3 4 5 6 7 8 ^ 9 ( .                     ",
"              @ [ 0 a b c d e f g h i j 5 k 7 8 .                   ",
"            $ l m n o p q r s t u v w x y h z j 6 .                 ",
"            @ A B C D E F G H I J K K L M v w N y h .               ",
"          $ O P Q R S T U V W X Y Z `  ...K +.@.M v x .             ",
"          @ #.$.%.&.*.=.-.;.>.,.'.).!.~.{.].^./...K L (..           ",
"        $ _.:.<.[.}.|.1.2.3.4.5.6.7.8.9.!.~.0.a.b.c. .d....         ",
"        @ e.f.g.:.h.i.j.k.l.2.m.n.o.p.q.8.9.r.s.0.t.u.a.b.^..       ",
"      v.w.x.y.z.f.g.A.B.C.D.E.F.G.m.H.I.J.K.L.9.M.s.N.O.P.Q.u..     ",
"      R.S.T.U.x.y.z.f.V.W.X.Y.Z.`. +.+++@+#+$+%+&+*+=+-+P.;+>+>+.   ",
"    ,+'+)+!+~+T.U.x.{+]+^+/+(+_+:+<+[+}+|+1+2+3+4+5+6+7+8+9+. .     ",
"    0+a+b+c+)+!+~+d+e+f+g+h+i+j+k+l+m+n+[+o+|+p+q+r+s+t+u+.         ",
"  ,+b+c+v+w+c+x+)+!+y+z+A+B+C+D+E+F+G+H+I+J+K+L+M+N+O+P+            ",
"  0+a+w+Q+R+S+R+v+T+)+!+U+V+W+X+Y+Z+`+F+ @.@+@j.|.@@#@$@            ",
",+b+c+v+Q+T+%@&@*@=@-@=@)+!+;@>@,@'@)@!@`+j+(+~@{@]@^@/@(@          ",
",+_@:@Q+R+S+=@<@[@}@|@[@1@2@)+!+U+3@4@5@)@6@7@8@9@0@a@b@c@$ $       ",
"  d@e@f@g@%@&@*@}@h@i@j@k@l@=@}@)+m@n@o@p@q@r@s@t@u@v@w@b@c@x@$     ",
"    y@d@z@A@B@[@}@|@C@D@E@F@G@j@*@H@I@J@U+K@L@M@N@O@P@Q@R@S@T@$     ",
"        y@d@U@V@W@i@j@k@:@X@Y@Z@B@:@}@D@)+!+`@ #.#+#@###$#%#$       ",
"            y@d@&#*#=#E@F@G@-#B@;#W@>#,#|@:@)+'#.#)#!#~#{#$         ",
"                y@d@f@]#U@Y@Z@B@>#>#^#/#>#,#j@(#_#:#<#[#$           ",
"                    y@d@}#|#>#>#W@1#>#>#U@&#2#(#3#4#4#$             ",
"                        y@d@V@5#>#>#/#U@>#>#(#6#7#8#$               ",
"                            y@d@9#0#>#>#&#2#(#a#b#$                 ",
"                                y@d@c#d#>#(#e#f#g#                  ",
"                                    y@h#i#(#j#g#                    ",
"                                        k#$ g#                      ",
"                                                                    ",
"                                                                    "};
